# xmcd
#
# Track frame offsets:
#	183
#	11933
#	23873
#	36318
#	48760
#	59130
#	70275
#	84793
#	95690
#	106330
#	117733
#	127585
#	138538
#	150810
#	162823
#	174313
#	186838
#	199380
#	210890
#	221370
#	233973
#
# Disc length: 3280 seconds
#
# Revision: 0
# Processed by: cddbd v1.5.2PL0 Copyright (c) Steve Scherf et al.
# Submitted via: EasyCDDAExtractor 11.0.0.1
#
DISCID=1e0cce15
DTITLE=주현미 - 디스코 파티
DYEAR=2010
DGENRE=Trot
TTITLE0=애수의 소야곡
TTITLE1=짝사랑
TTITLE2=꿈꾸는 백마강
TTITLE3=선창
TTITLE4=목포의 눈물
TTITLE5=눈물젖은 두만강
TTITLE6=임이라 부르리까?
TTITLE7=항구의 사랑
TTITLE8=불효자는 웁니다
TTITLE9=비내리는 고모령
TTITLE10=무정한 그사람
TTITLE11=물래방아 도는 내력
TTITLE12=추억의 용두산
TTITLE13=나그네 설움
TTITLE14=청춘고백
TTITLE15=잘있거라 황진이
TTITLE16=꿈에 본 내고향
TTITLE17=울고넘는 박달재
TTITLE18=홍도야 울지마라
TTITLE19=남원의 애수
TTITLE20=한백년
EXTD=
EXTT0=
EXTT1=
EXTT2=
EXTT3=
EXTT4=
EXTT5=
EXTT6=
EXTT7=
EXTT8=
EXTT9=
EXTT10=
EXTT11=
EXTT12=
EXTT13=
EXTT14=
EXTT15=
EXTT16=
EXTT17=
EXTT18=
EXTT19=
EXTT20=
PLAYORDER=
